<svg xmlns="http://www.w3.org/2000/svg" viewBox="0 0 744 1039" role="img" aria-labelledby="title desc">
  <title id="title">Gabriel, radiant messenger placeholder card art</title>
  <desc id="desc">A luminous angelic figure surrounded by concentric rays and a warm celestial glow.</desc>
  <defs>
    <linearGradient id="sky" x1="0%" y1="0%" x2="100%" y2="100%">
      <stop offset="0%" stop-color="#f7efe0"/>
      <stop offset="45%" stop-color="#f0d7a8"/>
      <stop offset="100%" stop-color="#c89b4e"/>
    </linearGradient>
    <radialGradient id="halo" cx="50%" cy="32%" r="34%">
      <stop offset="0%" stop-color="#fff9ec" stop-opacity="1"/>
      <stop offset="60%" stop-color="#fff1c8" stop-opacity="0.95"/>
      <stop offset="100%" stop-color="#fff1c8" stop-opacity="0"/>
    </radialGradient>
    <linearGradient id="robe" x1="0%" y1="0%" x2="100%" y2="100%">
      <stop offset="0%" stop-color="#fffdf7"/>
      <stop offset="100%" stop-color="#d8c29a"/>
    </linearGradient>
  </defs>
  <rect width="744" height="1039" fill="url(#sky)"/>
  <rect x="42" y="42" width="660" height="955" rx="30" fill="none" stroke="#7a5a22" stroke-width="10"/>
  <circle cx="372" cy="356" r="205" fill="url(#halo)"/>
  <g fill="none" stroke="#f9edbf" stroke-linecap="round">
    <path d="M372 132 L372 74" stroke-width="10"/>
    <path d="M474 158 L515 112" stroke-width="8"/>
    <path d="M542 242 L604 214" stroke-width="8"/>
    <path d="M566 356 L636 356" stroke-width="10"/>
    <path d="M542 470 L604 498" stroke-width="8"/>
    <path d="M474 554 L515 600" stroke-width="8"/>
    <path d="M372 580 L372 638" stroke-width="10"/>
    <path d="M270 554 L229 600" stroke-width="8"/>
    <path d="M202 470 L140 498" stroke-width="8"/>
    <path d="M178 356 L108 356" stroke-width="10"/>
    <path d="M202 242 L140 214" stroke-width="8"/>
    <path d="M270 158 L229 112" stroke-width="8"/>
  </g>
  <circle cx="372" cy="330" r="110" fill="#fff8de" stroke="#7a5a22" stroke-width="8"/>
  <path d="M372 248 C426 286 457 344 450 422 C433 509 395 565 372 599 C349 565 311 509 294 422 C287 344 318 286 372 248Z" fill="url(#robe)" stroke="#7a5a22" stroke-width="8"/>
  <path d="M304 392 C330 350 347 325 372 304 C397 325 414 350 440 392 C433 471 409 532 372 580 C335 532 311 471 304 392Z" fill="#efe1c5" opacity="0.85"/>
  <path d="M330 350 C352 374 362 397 372 432 C382 397 392 374 414 350" fill="none" stroke="#7a5a22" stroke-width="6" stroke-linecap="round"/>
  <path d="M310 460 C345 445 399 445 434 460" fill="none" stroke="#7a5a22" stroke-width="6" stroke-linecap="round"/>
  <path d="M258 682 C312 632 431 632 486 682 L486 792 L258 792 Z" fill="#ead3a6" stroke="#7a5a22" stroke-width="8"/>
  <path d="M258 682 C306 702 438 702 486 682" fill="none" stroke="#7a5a22" stroke-width="6"/>
  <path d="M282 792 C308 740 336 722 372 720 C408 722 436 740 462 792" fill="none" stroke="#7a5a22" stroke-width="8" stroke-linecap="round"/>
  <text x="372" y="902" text-anchor="middle" font-family="Georgia, serif" font-size="42" fill="#4b3213">Cloud Arcanum</text>
  <text x="372" y="958" text-anchor="middle" font-family="Georgia, serif" font-size="28" fill="#4b3213">Gabriel Placeholder Art</text>
</svg>
