<svg xmlns="http://www.w3.org/2000/svg" viewBox="0 0 744 1039" role="img" aria-labelledby="title desc">
  <title id="title">Grunt Demon placeholder card art</title>
  <desc id="desc">A horned demon soldier framed by smoke and ember light.</desc>
  <defs>
    <linearGradient id="bg" x1="0%" y1="0%" x2="100%" y2="100%">
      <stop offset="0%" stop-color="#140d12"/>
      <stop offset="100%" stop-color="#4a1114"/>
    </linearGradient>
    <radialGradient id="ember" cx="50%" cy="35%" r="60%">
      <stop offset="0%" stop-color="#ffcf7a"/>
      <stop offset="55%" stop-color="#d96b2b"/>
      <stop offset="100%" stop-color="#4a1114" stop-opacity="0"/>
    </radialGradient>
  </defs>
  <rect width="744" height="1039" fill="url(#bg)"/>
  <rect x="48" y="48" width="648" height="943" rx="28" fill="none" stroke="#8f3d2f" stroke-width="10"/>
  <circle cx="372" cy="410" r="220" fill="url(#ember)"/>
  <path d="M238 564 C250 444, 304 364, 372 364 C440 364, 494 444, 506 564 C478 612, 430 654, 372 654 C314 654, 266 612, 238 564 Z" fill="#6a2323" stroke="#f08e42" stroke-width="8"/>
  <path d="M286 382 L236 314 L250 420 Z" fill="#b3432c"/>
  <path d="M458 382 L508 314 L494 420 Z" fill="#b3432c"/>
  <path d="M286 406 C308 388, 334 378, 372 378 C410 378, 436 388, 458 406" fill="none" stroke="#ffcf7a" stroke-width="10" stroke-linecap="round"/>
  <circle cx="326" cy="516" r="16" fill="#fff0c2"/>
  <circle cx="418" cy="516" r="16" fill="#fff0c2"/>
  <path d="M306 604 C336 574, 408 574, 438 604" fill="none" stroke="#fff0c2" stroke-width="10" stroke-linecap="round"/>
  <path d="M242 702 C300 668, 336 652, 372 652 C408 652, 444 668, 502 702" fill="none" stroke="#ff8f57" stroke-width="12" stroke-linecap="round"/>
  <path d="M212 756 C286 716, 328 694, 372 694 C416 694, 458 716, 532 756" fill="none" stroke="#ffcf7a" stroke-width="8" stroke-linecap="round"/>
  <text x="372" y="840" text-anchor="middle" font-family="Georgia, serif" font-size="46" fill="#fff0c2">Grunt Demon</text>
  <text x="372" y="894" text-anchor="middle" font-family="Georgia, serif" font-size="28" fill="#f08e42">A low tier marcher</text>
</svg>
